<svg width="114" height="186" viewBox="0 0 114 186" fill="none" xmlns="http://www.w3.org/2000/svg">
<path d="M57.7872 185.068C39.0732 185.068 24.7779 177.097 14.9011 161.155C5.02433 145.041 0.0859375 122.255 0.0859375 92.7976C0.0859375 62.6474 5.11097 39.6882 15.161 23.92C25.3844 7.97855 39.2465 0.0078125 56.7475 0.0078125C75.2881 0.0078125 89.4102 8.06519 99.1137 24.1799C108.991 40.1214 113.929 62.8207 113.929 92.2778C113.929 122.428 108.904 145.474 98.8538 161.415C88.8037 177.184 75.1149 185.068 57.7872 185.068ZM57.7872 172.332C70.9562 172.332 81.1796 165.834 88.4572 152.838C95.9081 139.842 99.6335 119.656 99.6335 92.2778C99.6335 65.4199 95.9081 45.493 88.4572 32.4972C81.1796 19.3282 70.6097 12.7437 56.7475 12.7437C43.4052 12.7437 33.0086 19.2416 25.5576 32.2373C18.1067 45.2331 14.3813 65.4199 14.3813 92.7976C14.3813 119.656 18.1067 139.669 25.5576 152.838C33.0086 165.834 43.7517 172.332 57.7872 172.332Z" fill="#0F0E0E"/>
</svg>
