<svg width="113" height="185" viewBox="0 0 113 185" fill="none" xmlns="http://www.w3.org/2000/svg">
<path d="M53.679 184.536C44.4953 184.536 35.1384 182.717 25.6081 179.078C16.0779 175.439 7.7606 169.201 0.65625 160.364L10.533 150.747C15.2115 157.332 21.3628 162.617 28.987 166.602C36.6112 170.414 45.1018 172.32 54.4587 172.32C60.87 172.32 66.848 171.107 72.3929 168.681C77.9378 166.255 82.7029 162.963 86.6883 158.804C90.6736 154.473 93.7926 149.447 96.0452 143.729C98.2978 138.011 99.4241 131.86 99.4241 125.275C99.4241 117.824 98.0379 111.413 95.2655 106.042C92.6663 100.67 89.0275 96.2514 84.349 92.7859C79.6705 89.1471 74.1257 86.4613 67.7144 84.7285C61.4765 82.9958 54.7187 82.1294 47.441 82.1294C43.4557 82.1294 39.6436 82.4759 36.0047 83.169C32.3659 83.6889 28.2939 84.5553 23.7887 85.7682H20.4098L29.5069 -0.00390625H101.503V12.9919H39.6436L33.9254 71.9927C38.6039 70.6065 43.7156 69.9133 49.2604 69.9133C58.7907 69.9133 67.3679 71.2129 74.9921 73.8121C82.7895 76.4112 89.4607 80.1367 95.0055 84.9884C100.55 89.6669 104.796 95.4717 107.741 102.403C110.86 109.161 112.42 116.785 112.42 125.275C112.42 133.593 110.947 141.39 108.001 148.668C105.229 155.772 101.244 162.01 96.0452 167.382C90.8469 172.753 84.6089 176.999 77.3313 180.117C70.2269 183.063 62.3428 184.536 53.679 184.536Z" fill="#0F0E0E"/>
</svg>
