<svg width="24" height="24" viewBox="0 0 24 24" fill="none" xmlns="http://www.w3.org/2000/svg">
<path fill-rule="evenodd" clip-rule="evenodd" d="M11.9961 8.73152L11.1329 7.25555C10.489 6.1546 9.29975 5.41992 7.94077 5.41992C5.93097 5.41992 4.31357 7.05618 4.24478 9.16037L4.24477 9.16069C4.16429 11.5986 6.00043 13.8601 8.17869 15.6314C9.23426 16.4897 10.3014 17.1766 11.1076 17.6498C11.4658 17.86 11.7701 18.0267 11.9961 18.1462C12.2221 18.0267 12.5264 17.86 12.8845 17.6498C13.6907 17.1766 14.7578 16.4897 15.8134 15.6314C17.9915 13.8601 19.8278 11.5985 19.7475 9.16058C19.6783 7.05612 18.0607 5.41992 16.0514 5.41992C14.6926 5.41992 13.5032 6.1546 12.8593 7.25556L11.9961 8.73152ZM11.9961 19.2682C11.9961 19.2682 3.05083 15.0191 3.24531 9.1277C3.33026 6.52946 5.34727 4.41992 7.94077 4.41992C9.28638 4.41992 10.4994 4.98686 11.3556 5.89513C11.5999 6.15428 11.8151 6.44122 11.9961 6.75071C12.1771 6.44123 12.3924 6.15429 12.6367 5.89514C13.4929 4.98686 14.7059 4.41992 16.0514 4.41992C18.6445 4.41992 20.6615 6.52946 20.747 9.1277C20.9409 15.0191 11.9961 19.2682 11.9961 19.2682Z" fill="#848484"/>
</svg>
