<svg width="79" height="17" viewBox="0 0 79 17" fill="none" xmlns="http://www.w3.org/2000/svg">
<path d="M0.0510309 17L7.70703 0.079999H10.227L17.883 17H14.763L13.083 13.088H4.82703L3.17103 17H0.0510309ZM8.93103 3.416L5.88303 10.64H12.027L8.97903 3.416H8.93103ZM22.9024 17V0.079999H25.4704L31.4704 11.144L37.4464 0.079999H39.9664V17H37.1824V5.6L32.3344 14.432H30.5344L25.6864 5.648V17H22.9024ZM44.9863 17L52.6423 0.079999H55.1623L62.8183 17H59.6983L58.0183 13.088H49.7623L48.1063 17H44.9863ZM53.8663 3.416L50.8183 10.64H56.9623L53.9143 3.416H53.8663ZM69.9947 17V2.648H64.1867V0.079999H78.8747V2.648H73.0667V17H69.9947Z" fill="white"/>
</svg>
