<svg width="24" height="25" viewBox="0 0 24 25" fill="none" xmlns="http://www.w3.org/2000/svg">
<path fill-rule="evenodd" clip-rule="evenodd" d="M4.76352 8.88972L3.5293 20.4805H20.0723L18.838 8.88972H17.1276C17.1265 8.86938 17.1253 8.84908 17.1239 8.82881C16.9415 6.10376 14.6164 3.9375 11.8008 3.9375C8.98517 3.9375 6.66025 6.10377 6.47783 8.82882C6.47648 8.84909 6.47524 8.86939 6.47412 8.88972H4.76352ZM5.66269 9.88972L4.64143 19.4805H18.9601L17.9389 9.88972H5.66269ZM16.3005 8.88972C16.2756 8.55402 16.1951 8.2176 16.0685 7.88972C15.4223 6.21609 13.5752 4.76465 11.8008 4.76465C10.0083 4.76465 8.1733 6.21609 7.53157 7.88972C7.40585 8.2176 7.32592 8.55402 7.30109 8.88972H16.3005Z" fill="#0C0C0C"/>
</svg>
