<svg width="88" height="84" viewBox="0 0 88 84" fill="none" xmlns="http://www.w3.org/2000/svg">
<mask id="path-1-inside-1_1941_9569" fill="white">
<path d="M75.6296 17.1472H61.8101V7.87422C61.8102 6.02789 61.1005 4.25693 59.8367 2.9499C58.5729 1.64286 56.8583 0.906488 55.069 0.902344H32.931C31.1417 0.906488 29.427 1.64287 28.1633 2.94992C26.8995 4.25697 26.1898 6.02795 26.1899 7.87429V17.1473H12.3704C10.4578 17.1495 8.62405 17.9345 7.2716 19.33C5.91914 20.7256 5.15839 22.6178 5.15625 24.5914L0.15625 75.6527C0.158369 77.6264 0.919112 79.5185 2.27157 80.9141C3.62403 82.3097 5.45775 83.0947 7.37042 83.0969H80.6296C82.5423 83.0947 84.376 82.3097 85.7284 80.9141C87.0809 79.5185 87.8416 77.6264 87.8438 75.6527L82.8438 24.5914C82.8416 22.6178 82.0809 20.7256 80.7284 19.33C79.376 17.9344 77.5423 17.1494 75.6296 17.1472ZM29.0649 7.87422C29.0639 6.81442 29.4705 5.79752 30.1953 5.04664C30.9201 4.29577 31.9039 3.87225 32.931 3.86901H55.069C56.0961 3.87225 57.08 4.29578 57.8048 5.04667C58.5296 5.79756 58.9361 6.81448 58.9351 7.87429V17.1473H56.0601V8.31901C56.0602 8.1242 56.023 7.93129 55.9508 7.7513C55.8786 7.57131 55.7727 7.40777 55.6392 7.27002C55.5057 7.13227 55.3472 7.02301 55.1728 6.94848C54.9984 6.87396 54.8114 6.83563 54.6226 6.83568H33.3774C33.1886 6.83563 33.0016 6.87396 32.8272 6.94848C32.6528 7.02301 32.4943 7.13227 32.3608 7.27002C32.2273 7.40777 32.1214 7.57131 32.0492 7.7513C31.977 7.93129 31.9398 8.1242 31.9399 8.31901V17.1473H29.0649V7.87422ZM53.1851 17.1472H34.8149V9.80234H53.1851V17.1472ZM7.37182 80.1302C6.22094 80.1287 5.11761 79.6563 4.30389 78.8165C3.49016 77.9766 3.03248 76.8381 3.03125 75.6505L8.03125 24.5936C8.0325 23.406 8.49019 22.2675 9.30391 21.4277C10.1176 20.5879 11.221 20.1154 12.3718 20.1139H75.6282C76.779 20.1154 77.8824 20.5879 78.6961 21.4277C79.5098 22.2675 79.9675 23.406 79.9688 24.5936L84.9688 75.6505C84.9675 76.8381 84.5098 77.9766 83.6961 78.8164C82.8824 79.6562 81.779 80.1287 80.6282 80.1301L7.37182 80.1302Z"/>
<path fill-rule="evenodd" clip-rule="evenodd" d="M34.2578 47.5393H10.6142C10.5406 47.5393 10.4679 47.5353 10.3965 47.5276C9.32551 47.4121 8.52102 46.4541 8.62269 45.3551L10.4851 25.2237C10.6278 23.6805 11.9225 22.5 13.4723 22.5H74.5277C76.0775 22.5 77.3722 23.6805 77.515 25.2236L79.3774 45.3551C79.479 46.4541 78.6745 47.4121 77.6035 47.5276C77.5321 47.5353 77.4595 47.5393 77.3859 47.5393H53.7383V50.4076H78.2876C79.3287 50.4076 80.1957 51.2063 80.2809 52.2439L82.1241 74.6821C82.2676 76.43 80.8879 77.9277 79.1341 77.9277H8.86591C7.1122 77.9277 5.73241 76.43 5.87598 74.6821L7.71916 52.2439C7.8044 51.2063 8.67137 50.4076 9.71245 50.4076H34.2578V47.5393ZM13.4723 25.38H74.5277C74.5897 25.38 74.6415 25.4272 74.6472 25.4889L76.4207 44.6593H53.7383V43.3203C53.7383 41.1112 51.9474 39.3203 49.7383 39.3203H38.2578C36.0487 39.3203 34.2578 41.1112 34.2578 43.3203V44.6593H11.5794L13.3528 25.4889C13.3585 25.4272 13.4103 25.38 13.4723 25.38ZM34.2578 53.2876H11.4444C10.9238 53.2876 10.4903 53.687 10.4477 54.2058L8.74632 74.9179C8.74057 74.9878 8.79576 75.0477 8.86591 75.0477H79.1341C79.2043 75.0477 79.2595 74.9878 79.2537 74.9179L77.5523 54.2058C77.5097 53.687 77.0762 53.2876 76.5557 53.2876H53.7383V54.8008C53.7383 57.0099 51.9474 58.8008 49.7383 58.8008H38.2578C36.0487 58.8008 34.2578 57.0099 34.2578 54.8008V53.2876Z"/>
</mask>
<path d="M75.6296 17.1472H61.8101V7.87422C61.8102 6.02789 61.1005 4.25693 59.8367 2.9499C58.5729 1.64286 56.8583 0.906488 55.069 0.902344H32.931C31.1417 0.906488 29.427 1.64287 28.1633 2.94992C26.8995 4.25697 26.1898 6.02795 26.1899 7.87429V17.1473H12.3704C10.4578 17.1495 8.62405 17.9345 7.2716 19.33C5.91914 20.7256 5.15839 22.6178 5.15625 24.5914L0.15625 75.6527C0.158369 77.6264 0.919112 79.5185 2.27157 80.9141C3.62403 82.3097 5.45775 83.0947 7.37042 83.0969H80.6296C82.5423 83.0947 84.376 82.3097 85.7284 80.9141C87.0809 79.5185 87.8416 77.6264 87.8438 75.6527L82.8438 24.5914C82.8416 22.6178 82.0809 20.7256 80.7284 19.33C79.376 17.9344 77.5423 17.1494 75.6296 17.1472ZM29.0649 7.87422C29.0639 6.81442 29.4705 5.79752 30.1953 5.04664C30.9201 4.29577 31.9039 3.87225 32.931 3.86901H55.069C56.0961 3.87225 57.08 4.29578 57.8048 5.04667C58.5296 5.79756 58.9361 6.81448 58.9351 7.87429V17.1473H56.0601V8.31901C56.0602 8.1242 56.023 7.93129 55.9508 7.7513C55.8786 7.57131 55.7727 7.40777 55.6392 7.27002C55.5057 7.13227 55.3472 7.02301 55.1728 6.94848C54.9984 6.87396 54.8114 6.83563 54.6226 6.83568H33.3774C33.1886 6.83563 33.0016 6.87396 32.8272 6.94848C32.6528 7.02301 32.4943 7.13227 32.3608 7.27002C32.2273 7.40777 32.1214 7.57131 32.0492 7.7513C31.977 7.93129 31.9398 8.1242 31.9399 8.31901V17.1473H29.0649V7.87422ZM53.1851 17.1472H34.8149V9.80234H53.1851V17.1472ZM7.37182 80.1302C6.22094 80.1287 5.11761 79.6563 4.30389 78.8165C3.49016 77.9766 3.03248 76.8381 3.03125 75.6505L8.03125 24.5936C8.0325 23.406 8.49019 22.2675 9.30391 21.4277C10.1176 20.5879 11.221 20.1154 12.3718 20.1139H75.6282C76.779 20.1154 77.8824 20.5879 78.6961 21.4277C79.5098 22.2675 79.9675 23.406 79.9688 24.5936L84.9688 75.6505C84.9675 76.8381 84.5098 77.9766 83.6961 78.8164C82.8824 79.6562 81.779 80.1287 80.6282 80.1301L7.37182 80.1302Z" fill="#DEB38B"/>
<path fill-rule="evenodd" clip-rule="evenodd" d="M34.2578 47.5393H10.6142C10.5406 47.5393 10.4679 47.5353 10.3965 47.5276C9.32551 47.4121 8.52102 46.4541 8.62269 45.3551L10.4851 25.2237C10.6278 23.6805 11.9225 22.5 13.4723 22.5H74.5277C76.0775 22.5 77.3722 23.6805 77.515 25.2236L79.3774 45.3551C79.479 46.4541 78.6745 47.4121 77.6035 47.5276C77.5321 47.5353 77.4595 47.5393 77.3859 47.5393H53.7383V50.4076H78.2876C79.3287 50.4076 80.1957 51.2063 80.2809 52.2439L82.1241 74.6821C82.2676 76.43 80.8879 77.9277 79.1341 77.9277H8.86591C7.1122 77.9277 5.73241 76.43 5.87598 74.6821L7.71916 52.2439C7.8044 51.2063 8.67137 50.4076 9.71245 50.4076H34.2578V47.5393ZM13.4723 25.38H74.5277C74.5897 25.38 74.6415 25.4272 74.6472 25.4889L76.4207 44.6593H53.7383V43.3203C53.7383 41.1112 51.9474 39.3203 49.7383 39.3203H38.2578C36.0487 39.3203 34.2578 41.1112 34.2578 43.3203V44.6593H11.5794L13.3528 25.4889C13.3585 25.4272 13.4103 25.38 13.4723 25.38ZM34.2578 53.2876H11.4444C10.9238 53.2876 10.4903 53.687 10.4477 54.2058L8.74632 74.9179C8.74057 74.9878 8.79576 75.0477 8.86591 75.0477H79.1341C79.2043 75.0477 79.2595 74.9878 79.2537 74.9179L77.5523 54.2058C77.5097 53.687 77.0762 53.2876 76.5557 53.2876H53.7383V54.8008C53.7383 57.0099 51.9474 58.8008 49.7383 58.8008H38.2578C36.0487 58.8008 34.2578 57.0099 34.2578 54.8008V53.2876Z" fill="white"/>
<path d="M75.6296 17.1472H61.8101V7.87422C61.8102 6.02789 61.1005 4.25693 59.8367 2.9499C58.5729 1.64286 56.8583 0.906488 55.069 0.902344H32.931C31.1417 0.906488 29.427 1.64287 28.1633 2.94992C26.8995 4.25697 26.1898 6.02795 26.1899 7.87429V17.1473H12.3704C10.4578 17.1495 8.62405 17.9345 7.2716 19.33C5.91914 20.7256 5.15839 22.6178 5.15625 24.5914L0.15625 75.6527C0.158369 77.6264 0.919112 79.5185 2.27157 80.9141C3.62403 82.3097 5.45775 83.0947 7.37042 83.0969H80.6296C82.5423 83.0947 84.376 82.3097 85.7284 80.9141C87.0809 79.5185 87.8416 77.6264 87.8438 75.6527L82.8438 24.5914C82.8416 22.6178 82.0809 20.7256 80.7284 19.33C79.376 17.9344 77.5423 17.1494 75.6296 17.1472ZM29.0649 7.87422C29.0639 6.81442 29.4705 5.79752 30.1953 5.04664C30.9201 4.29577 31.9039 3.87225 32.931 3.86901H55.069C56.0961 3.87225 57.08 4.29578 57.8048 5.04667C58.5296 5.79756 58.9361 6.81448 58.9351 7.87429V17.1473H56.0601V8.31901C56.0602 8.1242 56.023 7.93129 55.9508 7.7513C55.8786 7.57131 55.7727 7.40777 55.6392 7.27002C55.5057 7.13227 55.3472 7.02301 55.1728 6.94848C54.9984 6.87396 54.8114 6.83563 54.6226 6.83568H33.3774C33.1886 6.83563 33.0016 6.87396 32.8272 6.94848C32.6528 7.02301 32.4943 7.13227 32.3608 7.27002C32.2273 7.40777 32.1214 7.57131 32.0492 7.7513C31.977 7.93129 31.9398 8.1242 31.9399 8.31901V17.1473H29.0649V7.87422ZM53.1851 17.1472H34.8149V9.80234H53.1851V17.1472ZM7.37182 80.1302C6.22094 80.1287 5.11761 79.6563 4.30389 78.8165C3.49016 77.9766 3.03248 76.8381 3.03125 75.6505L8.03125 24.5936C8.0325 23.406 8.49019 22.2675 9.30391 21.4277C10.1176 20.5879 11.221 20.1154 12.3718 20.1139H75.6282C76.779 20.1154 77.8824 20.5879 78.6961 21.4277C79.5098 22.2675 79.9675 23.406 79.9688 24.5936L84.9688 75.6505C84.9675 76.8381 84.5098 77.9766 83.6961 78.8164C82.8824 79.6562 81.779 80.1287 80.6282 80.1301L7.37182 80.1302Z" stroke="#DEB38B" stroke-width="5.76" mask="url(#path-1-inside-1_1941_9569)"/>
<path fill-rule="evenodd" clip-rule="evenodd" d="M34.2578 47.5393H10.6142C10.5406 47.5393 10.4679 47.5353 10.3965 47.5276C9.32551 47.4121 8.52102 46.4541 8.62269 45.3551L10.4851 25.2237C10.6278 23.6805 11.9225 22.5 13.4723 22.5H74.5277C76.0775 22.5 77.3722 23.6805 77.515 25.2236L79.3774 45.3551C79.479 46.4541 78.6745 47.4121 77.6035 47.5276C77.5321 47.5353 77.4595 47.5393 77.3859 47.5393H53.7383V50.4076H78.2876C79.3287 50.4076 80.1957 51.2063 80.2809 52.2439L82.1241 74.6821C82.2676 76.43 80.8879 77.9277 79.1341 77.9277H8.86591C7.1122 77.9277 5.73241 76.43 5.87598 74.6821L7.71916 52.2439C7.8044 51.2063 8.67137 50.4076 9.71245 50.4076H34.2578V47.5393ZM13.4723 25.38H74.5277C74.5897 25.38 74.6415 25.4272 74.6472 25.4889L76.4207 44.6593H53.7383V43.3203C53.7383 41.1112 51.9474 39.3203 49.7383 39.3203H38.2578C36.0487 39.3203 34.2578 41.1112 34.2578 43.3203V44.6593H11.5794L13.3528 25.4889C13.3585 25.4272 13.4103 25.38 13.4723 25.38ZM34.2578 53.2876H11.4444C10.9238 53.2876 10.4903 53.687 10.4477 54.2058L8.74632 74.9179C8.74057 74.9878 8.79576 75.0477 8.86591 75.0477H79.1341C79.2043 75.0477 79.2595 74.9878 79.2537 74.9179L77.5523 54.2058C77.5097 53.687 77.0762 53.2876 76.5557 53.2876H53.7383V54.8008C53.7383 57.0099 51.9474 58.8008 49.7383 58.8008H38.2578C36.0487 58.8008 34.2578 57.0099 34.2578 54.8008V53.2876Z" stroke="#DEB38B" stroke-width="5.76" mask="url(#path-1-inside-1_1941_9569)"/>
</svg>
