<svg width="24" height="25" viewBox="0 0 24 25" fill="none" xmlns="http://www.w3.org/2000/svg">
<path fill-rule="evenodd" clip-rule="evenodd" d="M12 9.23152L11.1368 7.75555C10.4929 6.6546 9.30365 5.91992 7.94467 5.91992C5.93488 5.91992 4.31748 7.55618 4.24869 9.66037L4.24867 9.66069C4.1682 12.0986 6.00433 14.3601 8.18259 16.1314C9.23816 16.9897 10.3053 17.6766 11.1115 18.1498C11.4697 18.36 11.774 18.5267 12 18.6462C12.226 18.5267 12.5303 18.36 12.8884 18.1498C13.6946 17.6766 14.7617 16.9897 15.8173 16.1314C17.9955 14.3601 19.8317 12.0985 19.7514 9.66058C19.6822 7.55612 18.0646 5.91992 16.0553 5.91992C14.6965 5.91992 13.5071 6.6546 12.8632 7.75556L12 9.23152ZM12 19.7682C12 19.7682 3.05474 15.5191 3.24922 9.6277C3.33416 7.02946 5.35117 4.91992 7.94467 4.91992C9.29028 4.91992 10.5033 5.48686 11.3595 6.39513C11.6038 6.65428 11.819 6.94122 12 7.25071C12.181 6.94123 12.3963 6.65429 12.6406 6.39514C13.4968 5.48686 14.7098 4.91992 16.0553 4.91992C18.6484 4.91992 20.6654 7.02946 20.7509 9.6277C20.9448 15.5191 12 19.7682 12 19.7682Z" fill="white"/>
</svg>
