<svg width="224" height="143" viewBox="0 0 224 143" fill="none" xmlns="http://www.w3.org/2000/svg">
<path d="M90.445 49.7119C67.7027 47.1195 64.7321 72.0535 64.7321 72.0535C64.7321 72.0535 40.5318 62.0336 31.5245 82.0505C28.0969 89.67 29.4679 96.2801 33.6506 101.862C40.3604 110.815 54.317 117.111 67.4016 120.626C80.1365 124.045 92.0371 124.835 95.601 122.879C99.1649 120.923 104.396 110.732 107.648 98.5364C110.988 86.0072 112.231 71.3683 107.429 61.3683C104.436 55.1335 99.0991 50.7003 90.445 49.7119Z" stroke="#DEB38B" stroke-width="2.88"/>
<path d="M194.583 64.6865C191.331 43.1325 165.227 46.8581 165.227 46.8581C165.227 46.8581 169.145 22.0428 146.475 18.9527C137.846 17.7774 131.484 20.7471 126.896 26.0324C119.535 34.5109 116.75 48.9562 116.565 61.8808C116.387 74.4597 118.664 85.5917 121.574 88.358C124.484 91.1244 136.193 93.2898 149.426 93.1199C163.021 92.9437 178.217 90.2964 187.135 83.2987C192.696 78.9372 195.819 72.8889 194.583 64.6865Z" stroke="#DEB38B" stroke-width="2.88"/>
<path d="M88.047 53.7661C70.267 52.8092 68.319 77.9603 68.319 77.9603C68.319 77.9603 45.2645 67.5089 37.2481 82.6235C34.1975 88.3768 35.2873 95.6823 38.321 99.6167C43.1876 105.928 58.4977 113.662 68.6337 115.702C78.4987 117.687 90.1975 119.495 93.0932 117.906C95.9889 116.316 99.2554 106.784 102.38 97.6683C105.589 88.3039 106.751 71.0408 103.434 63.8792C101.367 59.414 94.8128 54.1317 88.047 53.7661Z" stroke="#DEB38B" stroke-width="2.88"/>
<path d="M189.846 63.5347C186.217 46.9605 160.157 51.6814 160.157 51.6814C160.157 51.6814 164.81 27.8066 147.377 24.3575C140.742 23.0453 133.601 25.9369 130.389 29.7408C125.236 35.843 121.34 51.9031 121.89 61.7385C122.427 71.3108 123.617 82.5212 125.982 84.7689C128.346 87.0165 138.877 87.5487 148.948 88.0587C159.293 88.5814 177.135 85.1804 183.553 80.2813C187.555 77.2279 191.226 69.842 189.846 63.5347Z" stroke="#DEB38B" stroke-width="2.88"/>
</svg>
