<svg width="20" height="20" viewBox="0 0 20 20" fill="none" xmlns="http://www.w3.org/2000/svg">
<path d="M1.03083 6.46655C1.03083 5.98886 1.1394 5.56545 1.35653 5.19632C1.55195 4.84891 1.81251 4.55578 2.13821 4.31693C2.46391 4.07808 2.82218 3.89352 3.21302 3.76324C3.58215 3.65467 3.92956 3.60039 4.25526 3.60039C4.75466 3.60039 5.26493 3.70896 5.78605 3.92609C6.28545 4.16494 6.74143 4.50149 7.15399 4.93576C7.56654 5.37003 7.9031 5.89115 8.16366 6.49912C8.42422 7.10709 8.55449 7.7802 8.55449 8.51846C8.55449 9.79954 8.31565 10.8961 7.83796 11.808C7.33855 12.72 6.75229 13.4799 6.07918 14.0879C5.38435 14.7176 4.67867 15.2062 3.96213 15.5536C3.22388 15.9227 2.6159 16.1833 2.13821 16.3353V15.293C2.57248 15.0325 3.03931 14.7502 3.53872 14.4462C4.01641 14.1422 4.46153 13.7839 4.87409 13.3714C5.26493 12.9588 5.59063 12.492 5.85119 11.9709C6.11175 11.4498 6.24203 10.8635 6.24203 10.2121C6.24203 9.8864 6.20946 9.62584 6.14432 9.43042C6.07918 9.235 6.00318 9.083 5.91633 8.97444C5.80776 8.86587 5.71005 8.78987 5.6232 8.74645C5.51463 8.70302 5.42778 8.68131 5.36264 8.68131C5.12379 8.68131 4.83066 8.74645 4.48325 8.87673C4.13583 9.02872 3.81014 9.10472 3.50615 9.10472C3.22388 9.10472 2.9416 9.03958 2.65933 8.9093C2.35534 8.80073 2.08393 8.62702 1.84508 8.38818C1.60623 8.17104 1.41081 7.89963 1.25882 7.57393C1.10683 7.24823 1.03083 6.8791 1.03083 6.46655ZM11.1886 6.53169C11.1886 6.054 11.2972 5.63059 11.5143 5.26146C11.7097 4.89233 11.9703 4.58835 12.296 4.3495C12.6217 4.13237 12.9799 3.95866 13.3708 3.82838C13.7399 3.71981 14.0982 3.66553 14.4456 3.66553C14.945 3.66553 15.4444 3.7741 15.9438 3.99123C16.4432 4.23008 16.8992 4.55578 17.3117 4.96833C17.7243 5.4026 18.0609 5.92372 18.3214 6.53169C18.5603 7.13966 18.6797 7.81277 18.6797 8.55103C18.6797 9.83211 18.4408 10.9286 17.9631 11.8406C17.4637 12.7743 16.8775 13.5451 16.2044 14.1531C15.5095 14.7827 14.8039 15.2713 14.0873 15.6187C13.3708 15.9878 12.7737 16.2484 12.296 16.4004V15.3256C12.7302 15.065 13.1971 14.7827 13.6965 14.4788C14.1742 14.1748 14.6193 13.8165 15.0319 13.404C15.4227 12.9914 15.7592 12.5246 16.0415 12.0034C16.3021 11.504 16.4324 10.9178 16.4324 10.2447C16.4324 9.63669 16.3129 9.235 16.0741 9.03958C15.8135 8.84416 15.6181 8.74645 15.4878 8.74645C15.2707 8.74645 14.9884 8.81159 14.641 8.94187C14.2936 9.07215 13.9679 9.13729 13.6639 9.13729C13.3816 9.13729 13.0994 9.07215 12.8171 8.94187C12.5131 8.8333 12.2417 8.65959 12.0028 8.42075C11.764 8.20361 11.5686 7.9322 11.4166 7.6065C11.2646 7.30251 11.1886 6.94424 11.1886 6.53169Z" fill="#F0485B"/>
</svg>
