<svg width="20" height="20" viewBox="0 0 20 20" fill="none" xmlns="http://www.w3.org/2000/svg">
<path d="M18.9692 13.5335C18.9692 14.0111 18.8606 14.4346 18.6435 14.8037C18.448 15.1511 18.1875 15.4442 17.8618 15.6831C17.5361 15.9219 17.1778 16.1065 16.787 16.2368C16.4179 16.3453 16.0704 16.3996 15.7447 16.3996C15.2453 16.3996 14.7351 16.291 14.214 16.0739C13.7145 15.8351 13.2586 15.4985 12.846 15.0642C12.4335 14.63 12.0969 14.1089 11.8363 13.5009C11.5758 12.8929 11.4455 12.2198 11.4455 11.4815C11.4455 10.2005 11.6844 9.10393 12.162 8.19198C12.6614 7.28002 13.2477 6.52005 13.9208 5.91208C14.6156 5.28239 15.3213 4.79384 16.0379 4.44643C16.7761 4.0773 17.3841 3.81674 17.8618 3.66475V4.70699C17.4275 4.96755 16.9607 5.24982 16.4613 5.55381C15.9836 5.85779 15.5385 6.21606 15.1259 6.62862C14.7351 7.04117 14.4094 7.50801 14.1488 8.02913C13.8883 8.55025 13.758 9.13651 13.758 9.7879C13.758 10.1136 13.7905 10.3742 13.8557 10.5696C13.9208 10.765 13.9968 10.917 14.0837 11.0256C14.1922 11.1341 14.2899 11.2101 14.3768 11.2536C14.4854 11.297 14.5722 11.3187 14.6374 11.3187C14.8762 11.3187 15.1693 11.2536 15.5168 11.1233C15.8642 10.9713 16.1899 10.8953 16.4938 10.8953C16.7761 10.8953 17.0584 10.9604 17.3407 11.0907C17.6447 11.1993 17.9161 11.373 18.1549 11.6118C18.3938 11.829 18.5892 12.1004 18.7412 12.4261C18.8932 12.7518 18.9692 13.1209 18.9692 13.5335ZM8.81141 13.4683C8.81141 13.946 8.70284 14.3694 8.48571 14.7385C8.29029 15.1077 8.02973 15.4117 7.70403 15.6505C7.37833 15.8676 7.02006 16.0413 6.62922 16.1716C6.26009 16.2802 5.90182 16.3345 5.55441 16.3345C5.055 16.3345 4.5556 16.2259 4.05619 16.0088C3.55678 15.7699 3.1008 15.4442 2.68825 15.0317C2.2757 14.5974 1.93914 14.0763 1.67858 13.4683C1.43974 12.8603 1.32031 12.1872 1.32031 11.449C1.32031 10.1679 1.55916 9.07136 2.03685 8.15941C2.53626 7.22573 3.12252 6.45491 3.79563 5.84694C4.49046 5.21725 5.19614 4.7287 5.91268 4.38129C6.62922 4.01216 7.22633 3.7516 7.70403 3.59961V4.67442C7.26976 4.93498 6.80293 5.21725 6.30352 5.52124C5.82583 5.82522 5.3807 6.18349 4.96815 6.59605C4.57731 7.0086 4.24075 7.47544 3.95848 7.99656C3.69792 8.49596 3.56764 9.08222 3.56764 9.75533C3.56764 10.3633 3.68706 10.765 3.92591 10.9604C4.18647 11.1558 4.38189 11.2536 4.51217 11.2536C4.7293 11.2536 5.01158 11.1884 5.35899 11.0581C5.7064 10.9279 6.0321 10.8627 6.33609 10.8627C6.61836 10.8627 6.90064 10.9279 7.18291 11.0581C7.48689 11.1667 7.75831 11.3404 7.99716 11.5793C8.236 11.7964 8.43142 12.0678 8.58342 12.3935C8.73541 12.6975 8.81141 13.0558 8.81141 13.4683Z" fill="#F0485B"/>
</svg>
