<svg width="24" height="24" viewBox="0 0 24 24" fill="none" xmlns="http://www.w3.org/2000/svg">
<path fill-rule="evenodd" clip-rule="evenodd" d="M16.1603 16.8744C14.8843 17.9621 13.2297 18.6187 11.4216 18.6187C7.38534 18.6187 4.11328 15.3466 4.11328 11.3103C4.11328 7.27401 7.38534 4.00195 11.4216 4.00195C15.4579 4.00195 18.73 7.27401 18.73 11.3103C18.73 13.1992 18.0134 14.9208 16.8372 16.2179L19.8855 19.3307L19.2186 19.9975L16.1603 16.8744ZM17.73 11.3103C17.73 14.7943 14.9056 17.6187 11.4216 17.6187C7.93763 17.6187 5.11328 14.7943 5.11328 11.3103C5.11328 7.8263 7.93763 5.00195 11.4216 5.00195C14.9056 5.00195 17.73 7.8263 17.73 11.3103Z" fill="white"/>
</svg>
