<svg width="32" height="32" viewBox="0 0 32 32" fill="none" xmlns="http://www.w3.org/2000/svg">
<path d="M22.7206 22.1597C22.7386 22.3201 22.7224 22.4824 22.6732 22.636C22.6239 22.7897 22.5427 22.9311 22.4349 23.0511C22.3267 23.171 22.1944 23.2665 22.0467 23.3315C21.8989 23.3965 21.7391 23.4295 21.5777 23.4283H10.4234C10.262 23.4295 10.1022 23.3965 9.95445 23.3315C9.80672 23.2665 9.67442 23.171 9.56628 23.0511C9.45844 22.9311 9.37722 22.7897 9.32797 22.636C9.27873 22.4824 9.26257 22.3201 9.28057 22.1597L10.2863 13.1426H21.7149L22.7206 22.1597Z" stroke="white" stroke-linecap="round" stroke-linejoin="round"/>
<path d="M13.1445 13.1437V11.4294C13.1445 10.6716 13.4456 9.94492 13.9814 9.4091C14.5172 8.87329 15.2439 8.57227 16.0017 8.57227C16.7594 8.57227 17.4862 8.87329 18.022 9.4091C18.5578 9.94492 18.8588 10.6716 18.8588 11.4294V13.1437" stroke="white" stroke-linecap="round" stroke-linejoin="round"/>
</svg>
