<svg width="285" height="102" viewBox="0 0 285 102" fill="none" xmlns="http://www.w3.org/2000/svg">
<path d="M9.40726 48.9914C11.678 47.0237 14.1452 45.3759 19.4432 42.3852C23.3023 40.2786 28.3422 37.2263 30.2462 35.8804C32.7823 34.058 34.9005 32.2722 37.607 29.5083C38.4607 28.6754 39.2455 28.0171 39.3291 28.0098C39.5799 27.9879 39.6708 28.0642 39.7764 28.3076C39.9038 28.8019 39.6896 29.2418 37.3729 33.5722C33.1605 41.2693 30.5606 46.2141 27.086 53.6783C24.4536 59.2155 21.629 65.4435 21.9415 65.1635C21.9342 65.0799 22.8203 63.6546 23.8517 61.9638C29.4372 52.6302 34.079 45.9905 38.6487 40.4522C46.6439 30.7394 52.6755 26.5052 53.0192 30.4343C53.1948 32.4406 51.3179 36.9852 47.6249 43.8788C46.8987 45.2059 44.9414 48.8309 43.1911 51.9323C40.7907 56.27 36.9378 63.2618 36.3788 64.5743C36.0883 65.1051 36.5386 64.476 38.1113 62.2325C43.1273 55.0547 47.0251 50.5018 52.1841 45.9228C54.1351 44.1516 55.5594 43.1004 56.4717 42.9363C56.8823 42.8162 57.0495 42.8015 57.4132 43.1067C57.7695 43.3282 57.7841 43.4954 57.8426 44.1642C57.9962 45.9197 56.922 49.0463 53.8831 55.7142C50.1326 63.8764 48.5286 68.6498 47.9527 72.6593C47.8514 73.4263 47.8336 74.186 47.8085 74.8621C48.0499 77.6208 50.1503 76.5947 51.4293 75.8089C53.7586 74.51 57.1192 71.5204 61.9909 66.5454C65.3913 63.0469 70.1177 58.3372 70.5065 57.9663C70.6664 57.8681 70.8262 57.7698 70.9245 57.9297C71.0154 58.006 70.4741 58.5588 69.2389 59.8462C67.5314 61.5118 66.22 62.8901 60.8832 68.327C55.1651 74.2185 52.095 76.6773 49.7072 77.3074C47.8973 77.8027 46.8283 77.138 46.333 75.3282C45.6956 72.8568 47.2297 66.3205 50.0177 59.6746C50.7764 57.755 51.8329 55.3881 53.9751 50.9888C55.1152 48.6147 56.7015 44.601 56.8175 44.0012C56.8573 43.4923 56.6065 43.5142 55.4037 44.2091C53.3252 45.486 49.812 48.6575 46.0595 52.9449C43.2224 56.1415 39.5283 61.0977 36.7173 65.5555C34.5709 68.9443 34.3421 69.217 34.0986 69.3226C33.7642 69.3518 33.4915 69.123 33.4622 68.7886C33.3964 68.0362 34.6086 64.5607 36.2315 60.965C37.9996 57.1038 40.0948 53.1298 44.7649 44.8872C49.5112 36.5536 51.2323 33.1178 51.7475 31.3037C52.0558 30.0132 51.9502 29.7697 51.038 29.9337C49.2971 30.2545 45.7619 33.1752 41.6896 37.6591C36.9997 42.7867 30.6326 51.8517 24.23 62.4361C20.4858 68.7446 19.4147 70.9442 16.7029 77.4993C14.0601 83.8798 13.7153 84.7524 13.2502 85.2142C12.8615 85.5852 12.7779 85.5925 12.4216 85.371C12.3234 85.2111 12.2324 85.1348 12.2178 84.9676C12.2032 84.8004 12.548 83.9279 12.8856 82.9717C13.3067 82.0083 14.0581 80.0051 14.5189 78.5327C17.6111 69.5857 22.8789 57.5843 28.34 46.8296C30.5585 42.3394 33.333 37.4636 36.0531 32.9295C36.794 31.7696 37.3823 30.7915 37.2987 30.7988C37.2987 30.7988 36.5902 31.3662 35.8128 32.1081C31.4385 36.0288 27.8521 38.3643 19.578 42.9631C15.2393 45.3644 13.8839 46.2411 11.98 47.587C9.05509 49.7803 7.13337 51.8859 5.88775 54.0166C4.4279 56.5872 4.17813 58.5465 5.12381 59.7274C5.41117 60.1234 5.41849 60.207 5.3422 60.2979C5.01513 60.4108 4.8333 60.2582 4.53131 59.695C3.14153 57.2894 5.27645 52.8065 9.40726 48.9914Z" fill="#F0485B"/>
<path d="M83.9338 56.4546C84.2682 56.4253 84.0467 56.7817 82.9421 57.6364C81.4562 58.9458 79.8249 60.5205 77.9105 62.7097C76.0578 64.6408 74.5029 66.1246 73.7035 66.6157C73.0639 67.0086 72.1443 67.0891 71.7734 66.7004C71.5916 66.5478 71.4097 66.3952 71.3042 66.1518C70.8967 65.345 71.0482 63.2258 71.5707 61.4954L71.9156 60.6228L70.7713 61.9865C69.3909 63.5393 69.1547 63.7284 68.7148 63.5142C68.0021 63.0712 67.9907 61.9771 68.673 60.1484C69.508 58.1379 71.3461 56.0396 72.7453 55.6645C72.8216 55.5736 72.9052 55.5662 72.9888 55.5589C73.4904 55.515 74.0975 55.7146 74.2031 55.9581C74.3086 56.2016 74.3086 56.2016 74.712 55.9978C75.5187 55.5903 75.8823 55.8954 75.6138 56.6771C75.4685 56.9425 74.9021 58.1714 74.3357 59.4002C72.9198 62.4724 72.321 64.2938 72.4307 65.5478C72.5331 66.7181 73.5979 66.3723 75.6105 64.343C76.1518 63.7902 77.6232 62.3137 78.7821 61.1172C80.9399 58.8225 83.5994 56.4838 83.9338 56.4546ZM71.4537 60.1578C73.1466 58.325 74.1926 56.8014 73.691 56.8453C73.1894 56.8892 72.0995 57.9111 71.2061 59.2529C70.5341 60.2383 69.7389 61.7399 69.8988 61.6417C69.9824 61.6343 70.6835 60.9833 71.4537 60.1578Z" fill="#F0485B"/>
<path d="M88.6362 62.024C93.5957 58.0522 99.4114 54.1106 98.7468 55.1796C98.7541 55.2632 98.2072 55.8797 97.4914 56.3635C95.0858 57.7533 91.2852 60.5287 88.5349 62.791C86.0896 64.6897 85.7772 64.9698 85.5776 65.5769C85.4396 65.9259 84.612 68.02 83.7154 70.2886C80.6337 78.3923 78.6147 82.2754 75.9448 85.4573C73.7326 88.0938 71.814 89.2724 70.2581 88.8189C69.5673 88.6266 69.0072 88.0017 68.7596 87.0968C68.4064 85.9484 69.2518 83.0946 70.65 80.7821C73.3701 76.248 76.8102 72.2406 82.1145 67.3961L83.9892 65.7159L85.0164 63.0146C85.5609 61.535 86.2433 59.7063 86.5045 58.841C86.8494 57.9685 87.049 57.3614 86.9727 57.4523C86.8964 57.5432 86.5296 58.1649 86.0792 58.794C84.0635 61.7502 82.9882 62.9394 82.3194 62.9979C80.9818 63.1149 81.1114 60.7449 82.6476 58.0834C83.4501 56.6654 84.8232 55.029 85.6226 54.5378C86.1023 54.2432 86.5056 54.0394 86.8473 54.0938C87.1817 54.0645 87.5234 54.1188 87.7962 54.3477L88.2507 54.7291L88.5559 54.3655C88.8537 53.9182 89.2717 53.8817 89.3082 54.2996C89.4065 54.4595 89.1452 55.3248 88.8077 56.2809C88.4701 57.237 87.7261 59.3238 87.1127 60.978L86.1147 64.0136L88.6362 62.024ZM86.3112 57.5944L87.7314 55.5327L87.2225 55.493C87.2225 55.493 87.1389 55.5003 87.0553 55.5076C86.561 55.6351 86.0887 56.0133 85.1733 57.1043C83.9527 58.5589 82.7834 60.5986 82.5368 61.6311C82.5587 61.8819 82.5587 61.8819 82.8785 61.6854C83.1146 61.4963 83.6632 61.0271 84.0373 60.4889C84.5024 60.0271 85.4867 58.7616 86.3112 57.5944ZM81.4593 72.4235C82.5555 69.5477 83.521 67.1046 83.5137 67.021C83.5064 66.9374 82.8815 67.4975 82.0205 68.2468C76.3274 73.4621 71.9249 78.9858 70.0261 83.2795C68.9697 85.6464 69.0689 87.7436 70.2832 88.1428C70.8903 88.3424 71.5444 88.1167 72.6636 87.4291C73.3031 87.0362 73.8444 86.4835 74.8361 85.3016C77.1246 82.5743 78.3483 80.1928 81.4593 72.4235Z" fill="#F0485B"/>
<path d="M112.828 53.5897C113.137 53.5627 112.977 53.9368 112.265 54.5197C112.207 54.5671 112.145 54.6159 112.08 54.666C110.67 55.8844 109.115 57.3683 106.95 59.5794C102.002 64.6454 100.974 65.4092 99.7449 64.8428C98.516 64.2765 98.3655 61.594 99.4471 58.5511C99.7303 57.9366 99.8536 57.4204 99.8536 57.4204C99.77 57.4277 99.4649 57.7914 99.0835 58.2459C97.7031 59.7988 96.889 60.1227 96.4125 59.4905C95.9507 59.0255 96.0008 57.6733 96.4836 56.4517C96.8901 55.3211 97.4711 54.2594 98.234 53.3503C98.8369 52.5394 99.2403 52.3356 99.6039 52.6407C99.9676 52.9459 99.8516 53.5457 99.1107 54.7056C97.8577 56.7527 97.0082 58.596 97.2809 58.8248C97.5536 59.0537 100.405 56.0244 101.284 54.5154C102.232 52.832 102.781 52.3628 103.235 52.7442C103.508 52.9731 103.461 53.3984 102.735 54.7255C101.068 57.8196 99.725 61.7278 99.8494 63.1489C100.01 64.9881 101.693 63.9985 105.725 60.0235C108.553 57.0984 112.136 53.8727 112.769 53.607C112.793 53.5969 112.813 53.5911 112.828 53.5897Z" fill="#F0485B"/>
<path d="M143.693 51.2263C144.027 51.1971 143.806 51.5534 142.701 52.4082C141.215 53.7175 139.584 55.2923 137.67 57.4815C135.817 59.4125 134.262 60.8964 133.463 61.3875C132.823 61.7804 131.904 61.8608 131.533 61.4721C131.351 61.3195 131.169 61.167 131.063 60.9235C130.656 60.1168 130.807 57.9976 131.33 56.2671L131.675 55.3946L130.531 56.7583C129.15 58.3111 128.914 58.5002 128.474 58.286C127.761 57.8429 127.75 56.7488 128.432 54.9201C128.601 54.5142 128.81 54.1046 129.049 53.7064C129.224 53.4133 129.416 53.1263 129.618 52.8514C130.502 51.6503 131.596 50.6798 132.505 50.4362C132.581 50.3453 132.664 50.338 132.748 50.3307C133.25 50.2868 133.857 50.4864 133.962 50.7299C134.068 50.9733 134.068 50.9733 134.471 50.7696C135.278 50.3621 135.642 50.6672 135.373 51.4488C135.228 51.7142 134.661 52.9431 134.095 54.172C132.679 57.2442 132.08 59.0656 132.19 60.3195C132.292 61.4899 133.357 61.144 135.37 59.1147C135.911 58.5619 137.382 57.0854 138.541 55.8889C140.699 53.5942 143.359 51.2556 143.693 51.2263ZM131.213 54.9296C132.906 53.0967 133.952 51.5732 133.45 51.617C132.949 51.6609 131.859 52.6829 130.965 54.0246C130.293 55.01 129.498 56.5116 129.658 56.4134C129.742 56.4061 130.443 55.7551 131.213 54.9296Z" fill="#F0485B"/>
<path d="M126.153 55.8777C126.853 55.3165 128.18 54.371 129.049 53.7064C129.224 53.4133 129.416 53.1263 129.618 52.8514C129.008 53.232 128.037 53.9057 126.498 55.0051C121.669 58.5444 118.998 59.7889 117.929 59.1243C117.398 58.8338 117.532 57.0879 118.387 55.2507C119.151 53.9268 119.664 53.2554 119.224 53.0412C118.666 52.8205 118.09 53.7384 117.827 54.1801C117.672 54.4397 117.488 54.708 117.247 55.2099C116.885 55.9624 117.024 55.6302 116.778 56.2971C116.72 56.4245 116.682 56.548 116.624 56.6962C116.474 57.4201 116.463 58.2235 116.533 58.5726C116.81 59.8119 117.522 60.255 119.02 60.0397C120.517 59.8245 122.679 58.5402 126.153 55.8777Z" fill="#F0485B"/>
<path d="M112.57 57.066C112.499 57.2016 112.429 57.3355 112.361 57.4671C112.569 57.4738 112.823 57.4774 113.102 57.4754C113.302 57.4741 113.514 57.4699 113.732 57.462C114.823 57.4226 116.127 56.9404 116.624 56.6962C116.682 56.548 116.72 56.4245 116.778 56.2971C116.223 56.6658 114.945 57.1197 114.015 57.1304C113.794 57.133 113.578 57.1295 113.376 57.122C113.065 57.1105 112.787 57.0894 112.57 57.066Z" fill="#F0485B"/>
<path d="M109.671 61.0261C109.363 62.3166 109.247 62.9164 109.513 63.0617C109.866 63.2553 110.204 62.749 110.721 61.4916L111.244 59.9783L111.532 59.1786C111.721 58.7316 112.013 58.1382 112.361 57.4671C112.429 57.3355 112.499 57.2016 112.57 57.066C113.24 55.7956 113.912 54.3756 114.575 53.5212C115.606 51.8304 115.668 51.5723 115.38 51.1763C115.282 51.0164 115.024 50.9547 114.94 50.962C114.639 50.9884 113.566 52.3096 112.769 53.607C112.793 53.5969 112.813 53.5911 112.828 53.5897C113.137 53.5627 112.977 53.9368 112.265 54.5197C111.389 56.2911 110.153 59.528 109.671 61.0261Z" fill="#F0485B"/>
<path d="M211.254 47.1855C211.588 47.1562 211.366 47.5125 210.262 48.3673C208.776 49.6766 207.145 51.2514 205.23 53.4406C203.378 55.3717 201.823 56.8555 201.023 57.3466C200.384 57.7395 199.464 57.82 199.093 57.4312C198.911 57.2787 198.729 57.1261 198.624 56.8826C198.216 56.0759 198.368 53.9567 198.89 52.2263L199.235 51.3537L198.091 52.7174C196.711 54.2702 196.474 54.4593 196.035 54.2451C195.322 53.802 195.31 52.7079 195.993 50.8793C196.828 48.8688 198.666 46.7705 200.065 46.3953C200.141 46.3044 200.225 46.2971 200.309 46.2898C200.81 46.2459 201.417 46.4455 201.523 46.689C201.628 46.9325 201.628 46.9325 202.032 46.7287C202.838 46.3212 203.202 46.6263 202.934 47.408C202.788 47.6734 202.222 48.9022 201.655 50.1311C200.24 53.2033 199.641 55.0247 199.75 56.2787C199.853 57.449 200.918 57.1031 202.93 55.0738C203.472 54.5211 204.943 53.0445 206.102 51.8481C208.26 49.5533 210.919 47.2147 211.254 47.1855ZM198.773 50.8887C200.466 49.0558 201.512 47.5323 201.011 47.5762C200.509 47.6201 199.419 48.642 198.526 49.9838C197.854 50.9692 197.059 52.4708 197.219 52.3725C197.302 52.3652 198.003 51.7142 198.773 50.8887Z" fill="#F0485B"/>
<path d="M225.257 45.4549C225.439 45.6074 224.967 45.9857 222.645 47.3682C219.691 49.2271 216.827 51.1624 214.07 53.3411C212.653 54.4759 212.577 54.5669 212.529 54.9922C212.367 57.9546 211.217 61.1721 208.969 65.3279C207.302 68.422 205.868 70.3165 203.412 73.0585C201.101 75.5351 199.532 76.8517 198.064 77.4013C197.166 77.7326 196.915 77.7545 196.217 77.4787C195.61 77.2791 195.239 76.8903 195.082 76.0617C194.693 74.4953 196.552 70.7104 199.65 66.6486C202.534 63.0268 205.706 59.801 210.171 55.9566L211.573 54.6546L211.522 54.0694C211.478 53.5679 211.456 53.3171 211.184 53.0882C210.645 52.7141 209.773 52.3693 209.013 52.3515C208.588 52.3045 208.246 52.2501 208.239 52.1665C208.133 51.923 208.34 51.3995 208.507 51.3849C208.842 51.3556 212.032 49.3075 212.977 48.551C213.914 47.7108 215.135 46.2563 215.105 45.9219C215.025 45.0023 212.721 45.6251 211.98 46.785C211.537 47.4976 211.537 47.4976 211.271 47.3524C210.915 47.1308 211.053 46.7818 211.594 46.229C212.212 45.5853 213.262 45.0723 214.425 44.8863C214.592 44.8717 214.76 44.857 214.843 44.8497C215.261 44.8132 215.345 44.8058 215.534 45.042C216.254 45.5687 215.953 46.9428 214.885 48.2156C214.046 49.2156 211.997 50.8269 210.87 51.4309L209.98 51.8457L210.671 52.038C211.459 52.3902 211.732 52.619 212.14 53.4257L212.525 53.9817L213.158 53.5052C213.554 53.2178 214.178 52.6577 214.651 52.2794C216.624 50.759 219.883 48.5364 222.448 47.0484C223.964 46.0735 225.166 45.3786 225.257 45.4549ZM210.365 59.1407C211.055 57.3956 211.516 55.9232 211.41 55.6797C211.41 55.6797 211.41 55.6797 211.327 55.687C210.923 55.8908 208.028 58.4186 206.168 60.266C199.963 66.3686 195.412 73.0845 195.653 75.8433C195.719 76.5956 196.264 77.0533 197.009 76.9039C197.504 76.7764 197.907 76.5727 198.31 76.3689C199.742 75.4013 202.982 72.001 204.769 69.3175C207.014 66.0886 209.117 62.1982 210.365 59.1407Z" fill="#F0485B"/>
<path d="M239.25 44.3992C239.584 44.3699 239.37 44.8098 238.502 45.4755C237.092 46.6939 235.537 48.1777 233.372 50.3889C228.424 55.4548 227.395 56.2187 226.167 55.6523C224.938 55.0859 224.787 52.4035 225.869 49.3605C226.152 48.7461 226.275 48.2299 226.275 48.2299C226.192 48.2372 225.887 48.6008 225.505 49.0554C224.125 50.6082 223.311 50.9321 222.834 50.2999C222.372 49.8349 222.423 48.4827 222.905 47.2612C223.312 46.1305 223.893 45.0688 224.656 44.1597C225.259 43.3488 225.662 43.1451 226.026 43.4502C226.389 43.7553 226.273 44.3551 225.532 45.515C224.279 47.5621 223.43 49.4054 223.703 49.6343C223.975 49.8631 226.827 46.8338 227.706 45.3249C228.654 43.6415 229.202 43.1723 229.657 43.5537C229.93 43.7825 229.883 44.2078 229.156 45.5349C227.49 48.6291 226.147 52.5372 226.271 53.9584C226.432 55.7975 228.114 54.808 232.147 50.833C235.082 47.7963 238.832 44.4357 239.25 44.3992Z" fill="#F0485B"/>
<path d="M251.05 43.7037C251.551 43.6599 250.607 44.4164 246.875 47.0173C241.781 50.4113 241.218 50.7133 239.804 50.9212C238.808 51.0926 237.434 50.7916 237.211 49.2106C236.905 47.6368 238.045 45.2627 239.502 43.619C240.189 42.8008 240.828 42.4079 241.322 42.2804C241.649 42.1675 241.907 42.2292 242.097 42.4654C242.46 42.7705 242.406 43.1122 241.832 44.2575C241.244 45.2356 240.314 46.1593 239.576 46.3923C239.249 46.5052 239.096 46.687 238.744 47.4759C238.537 47.9995 238.429 48.6829 238.382 49.1082C238.364 49.8679 239.062 50.1437 240.065 50.056C241.319 49.9463 242.362 49.3496 246.984 46.3339C249.131 44.8824 250.966 43.7111 251.05 43.7037ZM240.037 44.92C239.449 45.898 239.54 45.9743 240.324 45.316C240.866 44.7632 241.683 43.5124 241.585 43.3525C241.585 43.3525 241.585 43.3525 241.501 43.3598C241.334 43.3745 240.64 44.1091 240.037 44.92Z" fill="#F0485B"/>
<path d="M253.385 40.8881C252.844 41.4408 251.595 44.4984 250.895 47.0868C250.587 48.3773 250.315 50.0858 250.497 50.2384C250.77 50.4673 251.395 49.9072 252.31 48.8162C253.302 47.6344 254.104 46.2164 254.649 44.7367L255.062 43.6896L254.699 43.3845C253.957 42.607 253.989 42.0145 254.658 41.956C255.243 41.9048 255.607 42.21 255.673 42.9623L255.724 43.5475L256.415 43.7398C258.04 44.0188 260.791 43.6939 263.916 42.8308C264.654 42.5978 265.316 42.4556 265.407 42.5319C265.588 42.6845 264.942 42.9938 263.215 43.4818C260.257 44.3303 257.916 44.535 255.775 44.1327C255.601 44.0637 255.448 44.2456 255.111 45.2017C254.152 47.7284 252.365 50.4119 251.239 51.0159C250.599 51.4088 250.516 51.4161 250.083 51.2855C249.203 50.857 249.246 49.4212 249.424 48.5633C249.832 44.5684 252.014 39.6602 256.699 31.5847C261.253 23.9419 264.947 18.9856 266.666 18.4141C266.75 18.4068 266.833 18.3994 266.917 18.3921C267.502 18.3409 267.651 19.086 267.245 20.2166C265.895 24.0412 262.655 29.3789 258.122 35.3351C256.535 37.4115 254.01 40.328 253.385 40.8881ZM256.751 34.1073C254.275 38.5358 253.708 39.7647 253.944 39.5756C254.104 39.4774 254.943 38.4773 255.859 37.3864C258.224 34.5681 259.575 32.6809 261.293 30.172C263.904 26.3213 265.357 23.6671 266.391 21.0495C266.943 19.6534 267.143 19.0463 266.808 19.0755C266.641 19.0902 266.169 19.4684 265.398 20.294C263.767 21.8687 260.589 26.9483 256.751 34.1073Z" fill="#F0485B"/>
<path d="M278.605 41.293C278.939 41.2637 278.718 41.62 277.613 42.4748C276.127 43.7841 274.496 45.3589 272.582 47.5481C270.729 49.4792 269.174 50.963 268.375 51.4541C267.735 51.847 266.816 51.9275 266.445 51.5387C266.263 51.3862 266.081 51.2336 265.976 50.9901C265.568 50.1834 265.72 48.0642 266.242 46.3338L266.587 45.4612L265.443 46.8249C264.062 48.3777 263.826 48.5668 263.386 48.3526C262.673 47.9095 262.662 46.8155 263.344 44.9868C264.179 42.9763 266.017 40.878 267.417 40.5029C267.493 40.4119 267.577 40.4046 267.66 40.3973C268.162 40.3534 268.769 40.553 268.874 40.7965C268.98 41.04 268.98 41.04 269.383 40.8362C270.19 40.4287 270.554 40.7338 270.285 41.5155C270.14 41.7809 269.573 43.0098 269.007 44.2386C267.591 47.3108 266.992 49.1322 267.102 50.3862C267.204 51.5565 268.269 51.2107 270.282 49.1813C270.823 48.6286 272.294 47.152 273.453 45.9556C275.611 43.6608 278.271 41.3222 278.605 41.293ZM266.125 44.9962C267.818 43.1633 268.864 41.6398 268.362 41.6837C267.861 41.7276 266.771 42.7495 265.877 44.0913C265.205 45.0767 264.41 46.5783 264.57 46.48C264.654 46.4727 265.355 45.8217 266.125 44.9962Z" fill="#F0485B"/>
<path d="M161.44 44.9731C160.437 45.0608 158.866 44.4401 157.601 43.4557C153.972 40.488 155.456 35.3039 157.442 32.0133C158.986 29.4354 161.249 27.3841 164.127 25.6161C167.881 23.266 171.402 22.1155 177.05 21.2002C180.121 20.6788 186.838 20.4281 193.501 20.5191C194.853 20.5692 195.955 20.6413 196.038 20.634C196.038 20.634 196.565 19.9141 197.168 19.1032C198.955 16.4197 200.67 14.8376 201.673 14.7499C202.174 14.706 202.531 14.9275 202.386 15.193C202.393 15.2766 202.233 15.3748 202.058 15.3058C201.542 15.1825 200.307 16.4699 198.734 18.7134C197.696 20.3206 197.627 20.4951 197.801 20.564C198.059 20.6257 204.388 20.7459 209.106 20.7544C212.221 20.7345 217.146 20.2194 218.788 19.7388C222.241 18.7628 224.966 17.1766 226.561 15.1838C227.476 14.0929 227.669 13.4022 227.505 12.4899C227.439 11.7375 227.508 11.563 227.879 11.9517C228.355 12.584 228.13 13.8672 227.313 15.118C225.824 17.3542 222.627 19.3187 218.999 20.2257C215.296 21.2236 210.934 21.4367 199.037 21.214C197.518 21.1785 197.267 21.2004 197.115 21.3822C196.733 21.8368 193.392 27.9415 191.969 30.9301C189.896 35.1548 185.844 44.8298 185.714 45.1238L185.457 45.6365L185.14 46.2691L182.519 52.9004C179.746 59.7136 178.62 62.2549 176.924 65.0147C175.457 67.5017 173.085 70.2363 171.661 71.2876C169.041 73.1173 165.45 74.4423 163.491 74.1925C161.957 73.9897 160.743 73.5906 159.932 72.9876C159.394 72.6135 158.623 71.5016 158.684 71.2435C158.83 70.9781 159.011 71.1307 159.488 71.7629C160.168 72.7985 161.223 73.2959 163.091 73.4694C163.691 73.5854 164.36 73.5269 165.021 73.3847C166.26 73.1078 168.125 72.2708 169.411 71.5686C173.081 69.2259 175.961 64.5935 179.54 55.4355C180.153 53.7813 181.25 50.9056 182.008 48.986C182.774 47.15 183.237 45.8875 183.237 45.8875C183.55 45.1621 183.556 45.1084 183.671 44.8813C183.826 44.5763 184.382 43.387 185.087 41.8092C188.027 34.9814 191.324 28.3751 193.678 24.4628C194.342 23.3938 195.083 22.2339 195.305 21.8775L195.664 21.1722L195.155 21.1325C194.646 21.0928 189.336 21.0519 186.214 20.9882C185.119 20.9996 182.604 21.1355 180.096 21.3549C176.509 21.753 175.673 21.8261 174.023 22.2232C167.43 23.8951 162.764 26.4092 159.568 30.3111C158.95 30.9548 158.424 31.6747 157.98 32.3874C156.078 35.6707 154.906 40.5747 157.808 42.9322C159.081 44.0002 160.051 44.5049 161.236 44.5697C162.338 44.6418 162.443 44.8853 161.44 44.9731Z" fill="#F0485B"/>
</svg>
