<svg width="93" height="89" viewBox="0 0 93 89" fill="none" xmlns="http://www.w3.org/2000/svg">
<path d="M83.1296 22.616H64.3101V13.343C64.3102 11.4966 63.6005 9.72568 62.3367 8.41865C61.0729 7.11161 59.3583 6.37524 57.569 6.37109H35.431C33.6417 6.37524 31.927 7.11162 30.6633 8.41867C29.3995 9.72572 28.6898 11.4967 28.6899 13.343V22.6161H9.87042C7.95776 22.6182 6.12405 23.4032 4.7716 24.7988C3.41914 26.1944 2.65839 28.0865 2.65625 30.0602V81.1215C2.65837 83.0951 3.41911 84.9873 4.77157 86.3829C6.12403 87.7785 7.95775 88.5634 9.87042 88.5656H83.1296C85.0423 88.5634 86.876 87.7785 88.2284 86.3829C89.5809 84.9873 90.3416 83.0951 90.3438 81.1215V30.0602C90.3416 28.0865 89.5809 26.1943 88.2284 24.7987C86.876 23.4032 85.0423 22.6182 83.1296 22.616ZM31.5649 13.343C31.5639 12.2832 31.9705 11.2663 32.6953 10.5154C33.4201 9.76452 34.4039 9.341 35.431 9.33776H57.569C58.5961 9.341 59.58 9.76453 60.3048 10.5154C61.0296 11.2663 61.4361 12.2832 61.4351 13.343V22.6161H58.5601V13.7878C58.5602 13.593 58.523 13.4 58.4508 13.2201C58.3786 13.0401 58.2727 12.8765 58.1392 12.7388C58.0057 12.601 57.8472 12.4918 57.6728 12.4172C57.4984 12.3427 57.3114 12.3044 57.1226 12.3044H35.8774C35.6886 12.3044 35.5016 12.3427 35.3272 12.4172C35.1528 12.4918 34.9943 12.601 34.8608 12.7388C34.7273 12.8765 34.6214 13.0401 34.5492 13.2201C34.477 13.4 34.4398 13.593 34.4399 13.7878V22.6161H31.5649V13.343ZM55.6851 22.616H37.3149V15.2711H55.6851V22.616ZM9.87182 85.599C8.72094 85.5975 7.61761 85.125 6.80389 84.2852C5.99016 83.4454 5.53248 82.3068 5.53125 81.1192V30.0623C5.5325 28.8748 5.99019 27.7362 6.80391 26.8964C7.61764 26.0566 8.72095 25.5842 9.87182 25.5827H83.1282C84.279 25.5842 85.3824 26.0566 86.1961 26.8964C87.0098 27.7362 87.4675 28.8748 87.4688 30.0623V81.1192C87.4675 82.3068 87.0098 83.4454 86.1961 84.2852C85.3824 85.125 84.279 85.5974 83.1282 85.5989L9.87182 85.599ZM84.5938 73.7468V52.6245C84.5938 52.4297 84.5567 52.2368 84.4844 52.0568C84.4122 51.8768 84.3063 51.7133 84.1728 51.5755C84.0393 51.4378 83.8809 51.3285 83.7064 51.254C83.532 51.1794 83.345 51.1411 83.1562 51.1412H56.3828V48.1745H83.1562C83.345 48.1745 83.532 48.1362 83.7064 48.0617C83.8809 47.9872 84.0393 47.8779 84.1728 47.7402C84.3063 47.6024 84.4122 47.4389 84.4844 47.2589C84.5567 47.0789 84.5938 46.886 84.5938 46.6912V37.4348C84.5937 37.1483 84.5132 36.8678 84.3619 36.6275C84.2107 36.3871 83.9953 36.1971 83.7416 36.0804C80.8705 34.7608 78.5742 32.3913 77.2953 29.4286C77.1823 29.1668 76.9982 28.9444 76.7653 28.7884C76.5323 28.6323 76.2605 28.5493 75.9828 28.5493H17.0172C16.7395 28.5493 16.4677 28.6323 16.2348 28.7884C16.0018 28.9444 15.8177 29.1668 15.7047 29.4286C14.4258 32.3913 12.1295 34.7608 9.25836 36.0804C9.00473 36.1971 8.78928 36.3871 8.63806 36.6275C8.48685 36.8678 8.40633 37.1483 8.40625 37.4348V46.6912C8.4062 46.886 8.44335 47.0789 8.51557 47.2589C8.5878 47.4389 8.69368 47.6024 8.82718 47.7402C8.96067 47.8779 9.11916 47.9872 9.29358 48.0617C9.46801 48.1362 9.65496 48.1745 9.84375 48.1745H36.6172V51.1412H9.84375C9.65496 51.1411 9.46801 51.1794 9.29358 51.254C9.11916 51.3285 8.96067 51.4378 8.82718 51.5755C8.69368 51.7133 8.5878 51.8768 8.51557 52.0568C8.44335 52.2368 8.4062 52.4297 8.40625 52.6245V73.7468C8.40633 74.0334 8.48685 74.3138 8.63806 74.5541C8.78928 74.7945 9.00473 74.9845 9.25836 75.1012C12.1295 76.4209 14.4258 78.7903 15.7047 81.753C15.8177 82.0148 16.0018 82.2372 16.2348 82.3932C16.4677 82.5493 16.7395 82.6323 17.0172 82.6323H75.9828C76.2605 82.6323 76.5323 82.5493 76.7653 82.3932C76.9982 82.2372 77.1823 82.0148 77.2953 81.753C78.5742 78.7903 80.8705 76.4209 83.7416 75.1012C83.9953 74.9845 84.2107 74.7945 84.3619 74.5541C84.5132 74.3138 84.5937 74.0334 84.5938 73.7468ZM11.2812 45.2078V38.3648C14.1233 36.8401 16.4409 34.4487 17.9185 31.516H75.0815C76.5591 34.4487 78.8767 36.8401 81.7188 38.3648V45.2078H56.3828V44.3619C56.3814 43.0131 55.8616 41.7199 54.9373 40.7661C54.013 39.8124 52.7598 39.2759 51.4526 39.2745H41.5474C40.2402 39.2759 38.987 39.8124 38.0627 40.7661C37.1384 41.7199 36.6186 43.0131 36.6172 44.3619V45.2078H11.2812ZM53.5078 44.3619V54.9531C53.5072 55.5154 53.2905 56.0545 52.9053 56.4522C52.52 56.8499 51.9976 57.0737 51.4526 57.0745H41.5474C41.0024 57.0737 40.48 56.8499 40.0947 56.4522C39.7095 56.0545 39.4928 55.5154 39.4922 54.9531V44.3619C39.4929 43.7997 39.7097 43.2607 40.095 42.8631C40.4802 42.4656 41.0025 42.2419 41.5474 42.2412H51.4526C51.9975 42.2419 52.5198 42.4656 52.9051 42.8631C53.2903 43.2607 53.5071 43.7997 53.5078 44.3619ZM81.7188 72.8168C78.8767 74.3415 76.5591 76.733 75.0815 79.6656H17.9185C16.4409 76.733 14.1233 74.3415 11.2812 72.8168V54.1078H36.6172V54.9531C36.6184 56.302 37.1382 57.5953 38.0625 58.5493C38.9868 59.5032 40.2401 60.0397 41.5474 60.0412H51.4526C52.7599 60.0397 54.0132 59.5032 54.9375 58.5493C55.8618 57.5953 56.3816 56.302 56.3828 54.9531V54.1078H81.7188V72.8168ZM8.40625 30.0392C8.40625 29.7458 8.49056 29.459 8.64851 29.2151C8.80647 28.9711 9.03097 28.781 9.29364 28.6687C9.55631 28.5565 9.84534 28.5271 10.1242 28.5843C10.403 28.6416 10.6592 28.7828 10.8602 28.9903C11.0613 29.1977 11.1982 29.462 11.2536 29.7498C11.3091 30.0375 11.2806 30.3358 11.1718 30.6068C11.063 30.8778 10.8788 31.1095 10.6424 31.2725C10.406 31.4355 10.1281 31.5225 9.84375 31.5225C9.65479 31.5232 9.46758 31.4852 9.29288 31.4109C9.11819 31.3366 8.95947 31.2274 8.82585 31.0895C8.69224 30.9516 8.58638 30.7879 8.51437 30.6076C8.44235 30.4273 8.40561 30.2341 8.40625 30.0392ZM81.7188 30.0392C81.7188 29.7458 81.8031 29.459 81.961 29.2151C82.119 28.9711 82.3435 28.781 82.6061 28.6687C82.8688 28.5565 83.1578 28.5271 83.4367 28.5843C83.7155 28.6416 83.9717 28.7828 84.1727 28.9903C84.3738 29.1977 84.5107 29.462 84.5661 29.7498C84.6216 30.0375 84.5931 30.3358 84.4843 30.6068C84.3755 30.8778 84.1913 31.1095 83.9549 31.2725C83.7185 31.4355 83.4406 31.5225 83.1562 31.5225C82.9673 31.5232 82.7801 31.4852 82.6054 31.4109C82.4307 31.3366 82.272 31.2274 82.1384 31.0895C82.0047 30.9516 81.8989 30.7879 81.8269 30.6076C81.7549 30.4273 81.7181 30.2341 81.7188 30.0392ZM11.2812 81.1548C11.2812 81.4482 11.1969 81.735 11.039 81.9789C10.881 82.2229 10.6565 82.413 10.3939 82.5252C10.1312 82.6375 9.84216 82.6669 9.56331 82.6097C9.28446 82.5524 9.02832 82.4112 8.82728 82.2037C8.62625 81.9963 8.48934 81.7319 8.43387 81.4442C8.37841 81.1565 8.40687 80.8582 8.51567 80.5872C8.62447 80.3161 8.80872 80.0845 9.04512 79.9215C9.28151 79.7585 9.55944 79.6715 9.84375 79.6715C10.2246 79.6727 10.5896 79.8294 10.8589 80.1073C11.1282 80.3852 11.28 80.7618 11.2812 81.1548ZM83.1562 82.6382C82.8719 82.6382 82.594 82.5512 82.3576 82.3882C82.1212 82.2252 81.937 81.9935 81.8282 81.7225C81.7194 81.4514 81.6909 81.1532 81.7464 80.8654C81.8018 80.5777 81.9388 80.3134 82.1398 80.1059C82.3408 79.8985 82.597 79.7572 82.8758 79.7C83.1547 79.6428 83.4437 79.6721 83.7064 79.7844C83.969 79.8967 84.1935 80.0868 84.3515 80.3307C84.5094 80.5747 84.5938 80.8615 84.5938 81.1548C84.5925 81.5478 84.4407 81.9244 84.1714 82.2023C83.9021 82.4802 83.5371 82.6369 83.1562 82.6382Z" fill="#DEB38B"/>
<path d="M22.8203 29.3125H25.6953V46.1758H22.8203V29.3125Z" fill="#DEB38B"/>
<path d="M61.4375 29.3125H64.3125V46.1758H61.4375V29.3125Z" fill="#DEB38B"/>
<path d="M22.8203 53.3574H25.6953V81.0078H22.8203V53.3574Z" fill="#DEB38B"/>
<path d="M61.4375 53.3574H64.3125V81.0078H61.4375V53.3574Z" fill="#DEB38B"/>
<path d="M28.6953 29.3125H31.5703V46.1758H28.6953V29.3125Z" fill="#DEB38B"/>
<path d="M67.3125 29.3125H70.1875V46.1758H67.3125V29.3125Z" fill="#DEB38B"/>
<path d="M28.6953 53.3574H31.5703V81.0078H28.6953V53.3574Z" fill="#DEB38B"/>
<path d="M67.3125 53.3574H70.1875V81.0078H67.3125V53.3574Z" fill="#DEB38B"/>
</svg>
